<svg width="55" height="54" viewBox="0 0 55 54" fill="none" xmlns="http://www.w3.org/2000/svg">
    <path d="M27.3112 10.1659L33.3549 22.6358L54.9939 23.878L51.7479 13.7577L27.3112 10.1659Z" fill="url(#paint0_linear_5363_11993)"/>
    <path d="M43.821 21.9392L33.9846 31.6149L39.5062 52.8508L48.004 46.5971L43.821 21.9392Z" fill="url(#paint1_linear_5363_11993)"/>
    <path d="M37.8751 41.4868L25.752 34.9978L7.52332 46.8805L16.0191 53.1342L37.8741 41.4868H37.8751Z" fill="url(#paint2_linear_5363_11993)"/>
    <path d="M17.6877 41.7944L20.0307 28.1091L3.2455 14.217L0 24.3373L17.6877 41.7944Z" fill="url(#paint3_linear_5363_11993)"/>
    <path d="M11.1598 22.4381L24.7299 20.4683L32.5833 0H22.0807L11.1598 22.4381Z" fill="url(#paint4_linear_5363_11993)"/>
    <path d="M43.9817 23.3812L33.2078 22.8224L22.1003 0H32.6009L43.9817 23.3812Z" fill="#2AA7DF"/>
    <path d="M28.7152 10.4585L24.8618 20.6665L0.00720215 24.3197L3.25016 14.1994L28.7152 10.4585Z" fill="#2AA7DF"/>
    <path d="M11.867 21.176L20.2583 28.0432L16.0064 53.1229L7.50854 46.8692L11.867 21.176Z" fill="#2AA7DF"/>
    <path d="M36.571 42.0864L33.7631 31.5311L51.7545 13.7749L55 23.8952L36.571 42.0864Z" fill="#CD2037"/>
    <path d="M16.7203 40.7236L25.7607 34.7584L47.9888 46.6077L39.4931 52.8614L16.7203 40.7236Z" fill="#2AA7DF"/>
    <defs>
        <linearGradient id="paint0_linear_5363_11993" x1="37.828" y1="6.66891" x2="44.6069" y2="27.2624" gradientUnits="userSpaceOnUse">
            <stop stop-color="#EB2627"/>
            <stop offset="1" stop-color="#631D23"/>
        </linearGradient>
        <linearGradient id="paint1_linear_5363_11993" x1="50.3272" y1="31.0302" x2="32.8387" y2="43.5716" gradientUnits="userSpaceOnUse">
            <stop stop-color="#2AA7DF"/>
            <stop offset="1" stop-color="#205DA8"/>
        </linearGradient>
        <linearGradient id="paint2_linear_5363_11993" x1="31.375" y1="50.5504" x2="13.886" y2="38.0085" gradientUnits="userSpaceOnUse">
            <stop stop-color="#2AA7DF"/>
            <stop offset="1" stop-color="#205DA8"/>
        </linearGradient>
        <linearGradient id="paint3_linear_5363_11993" x1="7.12529" y1="38.3374" x2="13.9038" y2="17.7439" gradientUnits="userSpaceOnUse">
            <stop stop-color="#2AA7DF"/>
            <stop offset="1" stop-color="#205DA8"/>
        </linearGradient>
        <linearGradient id="paint4_linear_5363_11993" x1="11.1588" y1="11.2195" x2="32.5833" y2="11.2195" gradientUnits="userSpaceOnUse">
            <stop stop-color="#2AA7DF"/>
            <stop offset="1" stop-color="#205DA8"/>
        </linearGradient>
    </defs>
</svg>
